# This file uses centimeters as units for non-parametric coordinates.

mtllib new-corp.mtl
g default
v 0.001398 0.237875 -0.549565
v -0.505035 0.321800 -0.153846
v 0.001398 0.296525 -0.696882
v 0.001398 0.669025 -0.447800
v 0.507830 0.321800 -0.153846
v 0.001398 0.926575 -0.294533
v -0.207060 0.936650 -0.048030
v 0.209856 0.936650 -0.048030
v 0.001398 -0.135975 -0.614655
v 0.610683 -0.110500 -0.237861
v 0.352345 0.669025 -0.103750
v -0.349548 0.669025 -0.103750
v 0.130242 0.849500 0.086745
v 0.578337 -0.043950 0.338860
v 0.186366 0.669025 0.185395
v -0.580940 -0.043950 0.338860
v -0.183570 0.669025 0.185395
v -0.127446 0.849500 0.086745
v -0.607885 -0.110500 -0.237862
v 0.001398 0.936650 -0.048030
v 0.001398 0.882790 0.035263
v 0.001398 0.849500 0.086745
v 0.001398 0.775401 0.127248
v 0.001398 0.669025 0.185395
v 0.000745 0.496547 0.222520
v -0.001301 -0.043950 0.338860
v 0.002276 0.926617 -0.293495
v 0.002272 0.925934 -0.294058
v 0.001398 0.797800 -0.371167
vt 0.497927 0.355296
vt 0.709025 0.424299
vt 0.498299 0.383920
vt 0.499415 0.510704
vt 0.287947 0.426470
vt 0.496629 0.224325
vt 0.246733 0.275770
vt 0.501136 0.596408
vt 0.348342 0.552411
vt 0.651008 0.552000
vt 0.584736 0.649583
vt 0.413885 0.647421
vt 0.746636 0.272210
vt 0.347545 0.671446
vt 0.077734 0.412701
vt 0.275397 0.636198
vt 0.918156 0.405495
vt 0.724880 0.635177
vt 0.652516 0.671762
vt 0.498697 0.660307
vt 0.666197 0.714706
vt 0.334740 0.714704
vt 0.696081 0.707523
vt 0.304881 0.707990
vt 0.260100 0.696590
vt 0.741146 0.695467
vt 0.197972 0.676170
vt 0.804218 0.673810
vt 0.987313 0.597918
vt 0.501129 0.596790
vt 0.500880 0.596557
vt 0.499535 0.552719
vt 0.012687 0.608743
vt 0.497772 0.692669
vt 0.497166 0.713422
vt 0.547263 0.711187
vt 0.446874 0.709598
vn -0.405026 -0.849461 -0.338188
vn -0.678630 0.344076 -0.648902
vn -0.707711 0.222993 -0.670387
vn 0.653613 0.420688 -0.629136
vn 0.678630 0.344075 -0.648901
vn 0.707712 0.222993 -0.670387
vn 0.000000 0.999166 -0.040838
vn 0.000000 0.999166 -0.040838
vn 0.000000 0.999166 -0.040838
vn 0.000000 0.999166 -0.040838
vn 0.405026 -0.849460 -0.338188
vn -0.595559 0.137790 -0.791406
vn -0.595559 0.137790 -0.791406
vn -0.595559 0.137790 -0.791406
vn 0.496805 0.277978 -0.822139
vn 0.496805 0.277978 -0.822139
vn 0.496805 0.277978 -0.822139
vn 0.644299 0.391101 -0.657205
vn 0.644294 0.391103 -0.657209
vn 0.644294 0.391103 -0.657209
vn -0.653612 0.420688 -0.629136
vn -0.644295 0.391102 -0.657209
vn -0.653843 0.429540 -0.622884
vn -0.650290 0.414515 -0.636631
vn -0.644295 0.391102 -0.657209
vn -0.662849 0.473649 -0.579904
vn 0.646242 0.384489 -0.659197
vn 0.857856 0.510204 -0.061442
vn 0.935668 0.351938 -0.025792
vn -0.646242 0.384492 -0.659195
vn -0.884266 0.363336 -0.293362
vn -0.861453 0.507703 -0.011653
vn 0.595559 0.137790 -0.791406
vn 0.595559 0.137789 -0.791406
vn 0.595559 0.137790 -0.791406
vn 0.662831 0.473660 -0.579914
vn 0.662848 0.473650 -0.579904
vn 0.662848 0.473650 -0.579904
vn 0.763064 0.640587 -0.085919
vn 0.408834 0.594805 0.692143
vn -0.592290 0.470475 0.654100
vn -0.426557 0.584167 0.690506
vn -0.403721 0.417981 0.813819
vn 0.973683 0.226116 0.028517
vn 0.459105 0.332152 0.823952
vn 0.341064 0.380977 0.859379
vn -0.631793 0.363309 0.684722
vn -0.776322 0.293148 -0.558021
vn -0.496805 0.277977 -0.822140
vn 0.000000 0.839733 0.542999
vn 0.000000 0.839733 0.542999
vn 0.000000 0.657313 0.753618
vn 0.000000 0.479636 0.877468
vn 0.000000 0.271661 0.962393
vn 0.000000 0.210427 0.977610
vn -0.000000 0.210427 0.977610
vn 0.000000 0.999166 -0.040837
vn 0.644294 0.391103 -0.657209
vn 0.644294 0.391103 -0.657209
s 1
g suitC_heads:flunky suitC_heads:suitC_heads_egg
usemtl lambert2SG
f 1/1/1 2/2/2 3/3/3
s 2
f 4/4/4 5/5/5 3/3/6
s 3
f 6/8/7 7/11/8 20/20/9 27/30/10
s 2
f 3/3/6 5/5/5 1/1/11
s off
f 9/6/12 2/2/13 1/1/14
f 9/6/15 5/5/16 10/7/17
s 4
f 6/8/18 28/31/19 29/32/20
s 1
f 3/3/3 2/2/2 4/4/21
s 5
f 4/4/22 12/10/23 6/8/24 29/32/25
f 6/8/24 12/10/23 7/11/26
s 6
f 4/4/27 11/9/28 5/5/29
f 4/4/30 2/2/31 12/10/32
s off
f 1/1/33 5/5/34 9/6/35
s 6
f 6/8/36 27/30/37 28/31/38
f 11/9/28 8/12/39 13/14/40
f 7/11/41 12/10/32 18/19/42
f 18/19/42 12/10/32 17/18/43
f 10/7/44 5/5/29 14/15/45
f 14/15/45 5/5/29 11/9/28
f 14/15/45 11/9/28 15/16/46
f 15/16/46 11/9/28 13/14/40
f 17/18/43 12/10/32 16/17/47
f 16/17/47 12/10/32 2/2/31
f 16/17/47 2/2/31 19/13/48
f 19/13/48 2/2/31 9/6/49
f 21/34/50 20/20/51 7/11/41
f 22/35/52 21/34/50 7/11/41 18/36/42
f 23/23/53 22/21/52 18/19/42
f 24/26/54 23/23/53 18/19/42 17/18/43
f 16/17/47 25/28/55 24/26/54 17/18/43
f 26/29/56 25/28/55 16/17/47
f 14/15/45 15/16/46 25/27/55 26/33/56
f 24/25/54 25/27/55 15/16/46
f 15/16/46 23/24/53 24/25/54
f 13/14/40 22/22/52 23/24/53 15/16/46
f 13/37/40 21/34/50 22/35/52
f 8/12/39 20/20/51 21/34/50 13/37/40
s 3
f 27/30/10 20/20/9 8/12/57
s 6
f 28/31/38 27/30/37 8/12/39 11/9/28
s 4
f 29/32/20 28/31/19 11/9/58 4/4/59
