# This file uses centimeters as units for non-parametric coordinates.

mtllib tophat.mtl
g default
v -1.435770 -0.327512 -0.000666
v -1.632600 -0.241545 1.702630
v -2.308900 0.169420 -0.026505
v 1.015200 -0.545969 -0.973291
v 1.632590 -0.412535 -1.582140
v 1.435700 -0.327288 -0.000690
v -1.632600 -0.241545 1.702630
v -1.487550 -0.109874 -0.004880
v -2.308900 0.169420 -0.026505
v 1.051820 -0.390775 -1.012580
v 1.487480 -0.109642 -0.004904
v 1.632590 -0.412535 -1.582140
v -0.000000 -0.677755 -1.454270
v -0.000129 1.219110 -0.192719
v -1.015230 -0.546131 -0.973274
v -1.015230 -0.287222 1.060170
v 0.000000 -0.335880 2.434780
v -0.000000 -0.243954 1.501780
v 1.015210 -0.287062 1.060150
v 1.632610 -0.241288 1.702600
v 2.308810 0.169781 -0.026543
v -0.000238 2.398400 -2.471080
v -0.000250 2.759100 -0.440361
v 1.455970 2.548250 -1.921900
v 2.059150 2.894620 -0.464025
v -1.456460 2.548020 -1.921880
v -2.059670 2.894300 -0.463991
v -1.456480 3.049250 0.947109
v -0.000251 3.007480 1.764750
v 1.455960 3.049480 0.947085
v -1.632620 -0.412790 -1.582120
v -0.000000 -0.612741 -2.233660
v -1.051840 -0.119555 1.094210
v -1.619340 1.238640 -0.194787
v -1.145090 1.387870 0.921387
v -2.059670 2.894300 -0.463991
v -1.456480 3.049250 0.947109
v 0.000000 -0.206837 1.551750
v -0.000130 1.434500 1.532130
v -0.000251 3.007480 1.764750
v 1.051820 -0.119389 1.094190
v 1.144830 1.388050 0.921369
v 1.455960 3.049480 0.947085
v 1.619080 1.238900 -0.194814
v 2.059150 2.894620 -0.464025
v 1.144840 0.993960 -1.334380
v 1.455970 2.548250 -1.921900
v -0.000238 2.398400 -2.471080
v -0.000109 0.816537 -1.824940
v 0.000000 -0.531166 -1.510900
v -0.000000 -0.612741 -2.233660
v -1.456460 2.548020 -1.921880
v -0.000238 2.398400 -2.471080
v -1.145080 0.993780 -1.334360
v -0.000109 0.816537 -1.824940
v -1.051850 -0.390942 -1.012570
v 0.000000 -0.531166 -1.510900
v -1.632620 -0.412790 -1.582120
v -0.000000 -0.612741 -2.233660
v 0.000000 -0.335880 2.434780
v 1.632610 -0.241288 1.702600
v 2.308810 0.169781 -0.026543
vt 0.896745 0.306722
vt 0.916651 0.127144
vt 0.980817 0.309710
vt 0.637735 0.415282
vt 0.574943 0.469295
vt 0.600842 0.301990
vt 0.398544 0.629027
vt 0.299438 0.706246
vt 0.301087 0.649958
vt 0.810348 0.650659
vt 0.699755 0.704705
vt 0.788661 0.596715
vt 0.744717 0.467384
vt 0.748122 0.309766
vt 0.852267 0.420067
vt 0.857375 0.187196
vt 0.750844 0.045387
vt 0.750417 0.137048
vt 0.643331 0.185260
vt 0.586025 0.125722
vt 0.518872 0.301341
vt 0.256424 0.554484
vt 0.251323 0.318162
vt 0.422742 0.481681
vt 0.488170 0.313049
vt 0.087120 0.488926
vt 0.014476 0.323274
vt 0.079905 0.154643
vt 0.246222 0.081840
vt 0.415526 0.147398
vt 0.910282 0.477516
vt 0.743182 0.548689
vt 0.404835 0.688807
vt 0.280118 0.808928
vt 0.390669 0.835163
vt 0.241146 0.954181
vt 0.370089 0.979376
vt 0.499901 0.672204
vt 0.500386 0.844989
vt 0.501774 0.980227
vt 0.594867 0.687133
vt 0.610219 0.833695
vt 0.634002 0.976543
vt 0.720243 0.805948
vt 0.762513 0.948613
vt 0.819457 0.770292
vt 0.871901 0.906659
vt 0.977852 0.850663
vt 0.909770 0.734629
vt 0.904202 0.616895
vt 0.898438 0.547788
vt 0.128684 0.915463
vt 0.018351 0.862860
vt 0.178001 0.775690
vt 0.084010 0.743231
vt 0.186593 0.651243
vt 0.084032 0.617730
vt 0.208318 0.595220
vt 0.091548 0.547525
vt 0.499557 0.606345
vt 0.600712 0.627177
vt 0.698492 0.648315
vn 0.248748 -0.967125 0.052853
vn -0.180631 -0.983491 0.010854
vn -0.468471 -0.882959 0.030302
vn -0.244014 -0.860840 0.446555
vn 0.282987 -0.958998 0.015526
vn -0.243058 -0.958759 0.147321
vn 0.031977 0.989827 0.138637
vn -0.728157 0.685375 0.006964
vn 0.300415 0.953508 -0.023934
vn 0.536285 0.506577 -0.675113
vn 0.722640 0.683554 -0.102694
vn -0.155218 0.975303 -0.157135
vn -0.011973 -0.848253 0.529457
vn 0.000081 -0.991032 0.133625
vn 0.191245 -0.859869 0.473340
vn 0.298743 -0.912814 -0.278429
vn 0.008769 -0.997413 -0.071341
vn 0.018758 -0.906351 -0.422108
vn -0.230574 -0.928153 -0.292177
vn 0.124713 -0.988145 -0.089537
vn 0.435138 -0.897127 0.076274
vn -0.000079 0.984589 -0.174885
vn -0.000079 0.987615 -0.156898
vn -0.051125 0.980492 -0.189793
vn -0.066653 0.982841 -0.171994
vn 0.050969 0.980500 -0.189795
vn 0.066497 0.982851 -0.171995
vn 0.079697 0.989175 -0.123211
vn -0.000079 0.993716 -0.111931
vn -0.079854 0.989162 -0.123211
vn -0.291801 -0.952867 0.083048
vn -0.013786 -0.996775 -0.079060
vn -0.520815 0.618123 0.588792
vn -0.981823 -0.188263 0.024103
vn -0.727397 -0.076956 0.681888
vn -0.967044 -0.253107 0.027616
vn -0.742850 -0.156060 0.651014
vn -0.008257 0.620764 0.783954
vn -0.046925 -0.060806 0.997046
vn -0.024225 -0.138183 0.990111
vn 0.484494 0.598676 0.637850
vn 0.717876 -0.074082 0.692218
vn 0.724873 -0.145747 0.673288
vn 0.981034 -0.187741 0.048219
vn 0.966501 -0.248470 0.064331
vn 0.730234 -0.295300 -0.616081
vn 0.718820 -0.354977 -0.597737
vn 0.361760 -0.352503 -0.863060
vn 0.398457 -0.302133 -0.865995
vn 0.352976 0.336745 -0.872932
vn -0.077287 0.990529 -0.113483
vn -0.688140 -0.371213 -0.623429
vn -0.379790 -0.374865 -0.845716
vn -0.693610 -0.297745 -0.655937
vn -0.419935 -0.289355 -0.860191
vn -0.472634 0.523713 -0.708761
vn -0.297537 0.550514 -0.780004
vn 0.160329 0.966635 -0.199778
vn 0.076715 0.990763 -0.111823
vn 0.002970 0.988370 0.152040
vn -0.011943 0.980471 0.196302
vn -0.258498 0.961854 -0.089527
s 1
g topHat unnamed1
usemtl tt_t_chr_avt_acc_hat_topHatBlack
f 1/1/1 2/2/2 3/3/3
f 4/4/4 5/5/5 6/6/6
s 3
f 7/7/7 8/8/8 9/9/9
f 10/10/10 11/11/11 12/12/12
s 1
f 13/13/13 4/4/4 14/14/14
f 14/14/14 4/4/4 6/6/6
f 13/13/13 14/14/14 15/15/15
f 15/15/15 14/14/14 1/1/1
f 1/1/1 16/16/16 2/2/2
f 2/2/2 16/16/16 17/17/17
f 18/18/18 19/19/19 20/20/20
f 20/20/20 19/19/19 21/21/21
s 7
f 22/22/22 23/23/23 24/24/24
f 24/24/24 23/23/23 25/25/25
f 22/22/22 26/26/26 23/23/23
f 23/23/23 26/26/26 27/27/27
f 27/27/27 28/28/28 23/23/23
f 23/23/23 28/28/28 29/29/29
f 29/29/29 30/30/30 23/23/23
f 23/23/23 30/30/30 25/25/25
s 1
f 1/1/1 14/14/14 16/16/16
f 16/16/16 14/14/14 18/18/18
f 16/16/16 18/18/18 17/17/17
f 17/17/17 18/18/18 20/20/20
f 18/18/18 14/14/14 19/19/19
f 19/19/19 14/14/14 6/6/6
f 19/19/19 6/6/6 21/21/21
f 21/21/21 6/6/6 5/5/5
f 1/1/1 3/3/3 15/15/15
f 15/15/15 3/3/3 31/31/31
f 15/15/15 31/31/31 13/13/13
f 13/13/13 31/31/31 32/32/32
f 13/13/13 32/32/32 4/4/4
f 4/4/4 32/32/32 5/5/5
s 3
f 8/8/8 33/33/33 34/34/34
f 34/34/34 33/33/33 35/35/35
f 34/34/34 35/35/35 36/36/36
f 36/36/36 35/35/35 37/37/37
f 33/33/33 38/38/38 35/35/35
f 35/35/35 38/38/38 39/39/39
f 35/35/35 39/39/39 37/37/37
f 37/37/37 39/39/39 40/40/40
f 38/38/38 41/41/41 39/39/39
f 39/39/39 41/41/41 42/42/42
f 39/39/39 42/42/42 40/40/40
f 40/40/40 42/42/42 43/43/43
f 41/41/41 11/11/11 42/42/42
f 42/42/42 11/11/11 44/44/44
f 42/42/42 44/44/44 43/43/43
f 43/43/43 44/44/44 45/45/45
f 11/11/11 10/10/10 44/44/44
f 44/44/44 10/10/10 46/46/46
f 44/44/44 46/46/46 45/45/45
f 45/45/45 46/46/46 47/47/47
f 48/48/48 47/47/47 49/49/49
f 49/49/49 47/47/47 46/46/46
f 49/49/49 46/46/46 50/50/50
f 50/50/50 46/46/46 10/10/10
f 50/50/50 10/10/10 51/51/51
f 51/51/51 10/10/10 12/12/12
f 52/52/52 53/53/53 54/54/54
f 54/54/54 53/53/53 55/55/55
f 54/54/54 55/55/55 56/56/56
f 56/56/56 55/55/55 57/57/57
f 56/56/56 57/57/57 58/58/58
f 58/58/58 57/57/57 59/59/59
f 36/36/36 52/52/52 34/34/34
f 34/34/34 52/52/52 54/54/54
f 34/34/34 54/54/54 8/8/8
f 8/8/8 54/54/54 56/56/56
f 8/8/8 56/56/56 9/9/9
f 9/9/9 56/56/56 58/58/58
f 8/8/8 7/7/7 33/33/33
f 33/33/33 7/7/7 60/60/60
f 33/33/33 60/60/60 38/38/38
f 38/38/38 60/60/60 61/61/61
f 38/38/38 61/61/61 41/41/41
f 41/41/41 61/61/61 62/62/62
f 41/41/41 62/62/62 11/11/11
f 11/11/11 62/62/62 12/12/12
