# This file uses centimeters as units for non-parametric coordinates.

mtllib bandHat.mtl
g default
v 1.053380 1.389910 0.752944
v 1.562450 1.751610 -0.166509
v 1.136530 2.401380 0.865161
v -1.551000 1.434080 -0.156683
v -1.051430 1.211310 0.756147
v -1.137040 2.240120 0.864865
v -1.460610 0.172334 0.010813
v -1.032800 0.307018 1.034800
v 1.239610 3.404550 1.050360
v 1.753080 3.088030 -0.330159
v 0.000000 -0.018140 -1.437320
v 1.032800 0.037648 -1.013170
v 0.000000 0.895817 -0.084342
v 1.460610 0.172334 0.010813
v -1.032800 0.037648 -1.013170
v 0.000000 0.362807 1.458950
v 1.032800 0.307018 1.034800
v -1.249020 -0.162820 1.303750
v -0.761556 -0.109971 2.144910
v 0.000000 0.051970 2.655550
v 0.761556 -0.109971 2.144910
v 1.249020 -0.162820 1.303750
v -1.753080 2.829880 -0.330159
v -1.239610 3.222010 1.050360
v 0.000000 5.710990 -1.953340
v -1.239610 5.055420 -2.041650
v 1.239610 5.427010 -2.053990
v 1.753080 4.282290 -2.208360
v -0.112677 4.102990 -0.239239
v -0.056339 4.085840 -0.530766
v -0.112677 2.793420 -0.881431
v -0.056339 2.793410 -1.121510
v 0.000000 4.102980 -0.239239
v -0.013737 4.769310 -1.080690
v -0.056339 4.633810 -1.213010
v 0.000000 2.793410 -0.881433
v -0.056339 1.078150 0.510833
v 0.000000 1.163900 0.630874
v 0.056339 3.639970 -1.388200
v 0.112677 3.811450 -1.106540
v 0.056339 3.157030 -0.092955
v 0.112677 3.345660 0.198574
v 0.002536 4.578630 -0.844610
v 0.056339 4.650520 -1.045800
v 0.000000 3.811460 -1.106540
v 0.000000 3.345660 0.198572
v 0.000000 0.995408 -0.434791
v 0.056339 1.064000 -0.674873
v -0.098941 4.769310 -1.080690
v -0.112677 1.163900 0.630876
v 0.110142 4.578630 -0.844608
v 0.112677 0.995404 -0.434789
v 0.702826 4.740660 1.518910
v -0.041251 4.551600 1.549700
v 0.281279 5.006240 0.726311
v 0.000000 4.891230 0.744951
v 0.147162 5.068560 0.088822
v 0.000000 5.008390 0.098573
v 0.000000 5.148290 -0.916817
v -0.147162 5.068560 0.088822
v 0.147162 5.483000 -0.012473
v 0.000000 5.543170 -0.022225
v 0.281279 5.677710 0.582103
v 0.000000 5.792720 0.563464
v 0.724182 6.245360 1.274920
v 0.041371 6.536600 1.227750
v -0.682754 6.245330 1.271760
v -0.281279 5.677710 0.582103
v -0.147162 5.483000 -0.012473
v -0.281279 5.006240 0.726311
v -0.682805 4.863180 1.501650
v 0.000000 2.491470 -2.079380
v 1.239610 2.766770 -1.585700
v 0.000000 1.167080 -1.604340
v 1.102570 1.411300 -1.171800
v -1.239610 2.584230 -1.585700
v -1.100820 1.231790 -1.167750
v 0.000000 1.349730 1.188880
v 0.000000 2.538790 1.320620
v 0.000000 3.497310 1.544050
v 0.000000 2.410630 -2.094210
v 1.239610 2.992670 -2.172080
v -1.239610 2.822350 -2.122790
v -1.753080 3.905020 -2.197060
v -0.005569 5.630350 -1.612170
v -0.553522 5.091490 -1.491710
v 0.000373 5.887900 -1.020870
v -0.777991 5.150720 -0.911605
v 0.006183 5.713630 -0.365572
v -0.546637 5.209960 -0.331497
v -0.001020 4.552630 -1.371260
v 0.546933 5.091490 -1.491710
v -0.000000 4.413540 -0.802335
v 0.778286 5.150720 -0.911605
v 0.000996 4.706290 -0.297421
v 0.553817 5.209960 -0.331497
v -0.998385 5.496520 1.357870
v -0.397789 5.299380 0.681311
v -0.208119 5.283530 0.042045
v 1.057590 5.576290 1.338150
v 0.397789 5.299380 0.681311
v 0.208119 5.283530 0.042045
v -0.004720 5.066950 -1.732000
v 0.005016 5.234500 -0.091208
vt 0.189626 0.607862
vt 0.350228 0.647884
vt 0.196884 0.762787
vt 0.350228 0.647884
vt 0.189626 0.607862
vt 0.196928 0.763712
vt 0.321085 0.420342
vt 0.181723 0.439166
vt 0.205676 0.950441
vt 0.380411 0.883550
vt 0.503630 0.363306
vt 0.578792 0.332439
vt 0.503630 0.265378
vt 0.609925 0.257919
vt 0.428468 0.332439
vt 0.397335 0.257919
vt 0.428468 0.183398
vt 0.503630 0.152531
vt 0.578792 0.183398
vt 0.009314 0.114232
vt 0.166427 0.134879
vt 0.164875 0.028907
vt 0.314113 0.046345
vt 0.312424 0.230893
vt 0.456858 0.128604
vt 0.312452 0.230932
vt 0.166455 0.134918
vt 0.314142 0.046384
vt 0.009342 0.114271
vt 0.164903 0.028946
vt 0.800451 0.386824
vt 0.670900 0.333162
vt 0.930002 0.333162
vt 0.983664 0.203611
vt 0.167167 0.186925
vt 0.116312 0.232028
vt 0.172422 0.310727
vt 0.119349 0.354485
vt 0.023131 0.187264
vt 0.023608 0.232485
vt 0.397203 0.369894
vt 0.398496 0.322673
vt 0.116313 0.232029
vt 0.397202 0.369894
vt 0.023608 0.232485
vt 0.717038 0.973100
vt 0.630063 0.972578
vt 0.769127 0.872563
vt 0.732708 0.872341
vt 0.788096 0.787458
vt 0.769728 0.787342
vt 0.809485 0.648837
vt 0.827339 0.788019
vt 0.847624 0.788135
vt 0.844135 0.873634
vt 0.881594 0.873856
vt 0.893647 0.975623
vt 0.980622 0.976145
vt 0.734901 0.788951
vt 0.555147 0.816658
vt 0.656200 0.589547
vt 0.508346 0.611494
vt 0.578912 0.393720
vt 0.460448 0.401517
vt 0.508346 0.611494
vt 0.021661 0.446964
vt 0.022682 0.617048
vt 0.023757 0.796075
vt 0.024850 0.978149
vt 0.800451 0.020398
vt 0.930002 0.074060
vt 0.670900 0.074060
vt 0.617238 0.203611
vt 0.939111 0.588977
vt 0.939341 0.510620
vt 0.860659 0.621203
vt 0.860984 0.510389
vt 0.782397 0.588517
vt 0.782627 0.510159
vt 0.939572 0.432262
vt 0.861310 0.399576
vt 0.782857 0.431802
vt 0.805343 0.974361
vt 0.806631 0.873098
vt 0.807717 0.787738
vt 0.971798 0.510715
vt 0.750170 0.510064
vt 0.181723 0.439166
vt 0.321085 0.420342
vt 0.380411 0.883550
vt 0.205676 0.950441
vt 0.167167 0.186925
vt 0.172422 0.310727
vt 0.167167 0.186925
vt 0.172422 0.310727
vt 0.119349 0.354485
vt 0.023608 0.232485
vt 0.116312 0.232028
vt 0.023131 0.187264
vt 0.167167 0.186925
vt 0.119349 0.354485
vt 0.172422 0.310727
vt 0.398496 0.322673
vt 0.167167 0.186925
vt 0.023131 0.187264
vt 0.023131 0.187264
vt 0.167167 0.186925
vt 0.172422 0.310727
vt 0.167167 0.186925
vt 0.172422 0.310727
vt 0.398496 0.322673
vt 0.172422 0.310727
vt 0.398496 0.322673
vt 0.023608 0.232485
vt 0.116312 0.232028
vt 0.023131 0.187264
vt 0.167167 0.186925
vt 0.119349 0.354485
vt 0.119349 0.354485
vt 0.116312 0.232028
vt 0.119349 0.354485
vt 0.172422 0.310727
vt 0.116312 0.232028
vt 0.167167 0.186925
vt 0.119349 0.354485
vt 0.119349 0.354485
vt 0.397203 0.369894
vt 0.119349 0.354485
vt 0.172422 0.310727
vt 0.397203 0.369894
vt 0.398496 0.322673
vt 0.788096 0.787458
vt 0.893647 0.975623
vt 0.844135 0.873634
vt 0.844135 0.873634
vt 0.827339 0.788019
vt 0.827339 0.788019
vt 0.788096 0.787458
vt 0.769127 0.872563
vt 0.769127 0.872563
vt 0.717038 0.973100
vt 0.555147 0.816658
vt 0.460448 0.401517
vt 0.460448 0.401517
vt 0.555147 0.816658
vt 0.380411 0.883550
vt 0.321085 0.420342
vt 0.205676 0.950441
vt 0.181723 0.439166
vt 0.939341 0.510620
vt 0.860984 0.510389
vt 0.860984 0.510389
vt 0.782627 0.510159
vt 0.893647 0.975623
vt 0.844135 0.873634
vt 0.844135 0.873634
vt 0.827339 0.788019
vt 0.805343 0.974361
vt 0.806631 0.873098
vt 0.806631 0.873098
vt 0.807717 0.787738
vt 0.807717 0.787738
vt 0.807717 0.787738
vt 0.807717 0.787738
vt 0.806631 0.873098
vt 0.806631 0.873098
vt 0.805343 0.974361
vt 0.827339 0.788019
vt 0.788096 0.787458
vt 0.788096 0.787458
vt 0.769127 0.872563
vt 0.769127 0.872563
vt 0.717038 0.973100
vt 0.939341 0.510620
vt 0.939341 0.510620
vt 0.939341 0.510620
vt 0.860984 0.510389
vt 0.860984 0.510389
vt 0.782627 0.510159
vt 0.782627 0.510159
vt 0.782627 0.510159
vn 0.679193 0.024212 0.733561
vn 0.992144 -0.120146 -0.034860
vn 0.678965 -0.150289 0.718623
vn -0.991408 -0.124908 -0.038844
vn -0.661646 0.035679 0.748967
vn -0.675084 -0.148162 0.722710
vn -0.999000 -0.043361 -0.010882
vn -0.672525 0.166033 0.721210
vn 0.666146 -0.178816 0.724068
vn 0.985971 -0.163111 0.035451
vn 0.000000 -0.991461 0.130406
vn 0.000000 -0.891403 0.453211
vn -0.316023 -0.845720 0.429984
vn -0.333095 -0.934842 0.122960
vn 0.316023 -0.845720 0.429984
vn 0.333095 -0.934842 0.122960
vn 0.316025 -0.928143 -0.196668
vn 0.000000 -0.978279 -0.207292
vn -0.316025 -0.928143 -0.196668
vn 0.807558 -0.525226 -0.268306
vn 0.521470 -0.786927 -0.329871
vn 0.762906 -0.547714 -0.343489
vn 0.303290 -0.895696 -0.325182
vn 0.276004 -0.906823 -0.318581
vn 0.276004 -0.906823 -0.318581
vn -0.276004 -0.906823 -0.318581
vn -0.276004 -0.906823 -0.318581
vn -0.521470 -0.786927 -0.329871
vn -0.303290 -0.895696 -0.325182
vn -0.807558 -0.525226 -0.268306
vn -0.762906 -0.547714 -0.343489
vn 0.687610 0.142739 0.711912
vn 0.999085 -0.041213 -0.011413
vn -0.985535 -0.166042 0.033939
vn -0.637173 -0.183556 0.748544
vn 0.034411 -0.197053 0.979789
vn 0.021017 -0.135444 0.990562
vn 0.021118 -0.135909 0.990496
vn 0.013761 -0.049352 0.998687
vn 0.012602 -0.035226 0.999300
vn -0.994736 0.013427 0.101588
vn -0.905764 0.047050 0.421163
vn -0.000004 -0.068481 -0.997652
vn -0.000015 -0.203228 -0.979132
vn 0.961962 0.218766 0.163617
vn 0.905758 0.047016 0.421180
vn -0.000029 -0.764415 -0.644724
vn -0.000053 -0.684975 -0.728567
vn 0.994736 0.013443 0.101582
vn 0.933317 0.242693 0.264612
vn -0.000002 -0.214635 -0.976694
vn -0.000052 -0.678550 -0.734554
vn 0.998485 0.047752 0.027344
vn 0.890089 0.090027 0.446808
vn -0.998485 0.047743 0.027352
vn -0.983428 -0.057641 0.171892
vn 0.000038 0.326772 -0.945103
vn -0.966516 -0.065951 0.247987
vn -0.890088 0.090030 0.446809
vn 0.000041 0.263820 -0.964572
vn -0.961960 0.218770 0.163622
vn -0.933316 0.242696 0.264615
vn 0.983429 -0.057641 0.171888
vn 0.966518 -0.065949 0.247978
vn 0.578419 -0.678771 -0.452440
vn 0.551630 -0.661188 -0.508463
vn -0.052907 -0.915410 -0.399032
vn -0.036587 -0.934333 -0.354518
vn 0.731872 -0.649762 -0.205360
vn 0.000000 -0.986262 -0.165190
vn -0.000000 -0.210940 -0.977499
vn -0.731872 -0.649762 -0.205360
vn 0.596940 0.446529 -0.666539
vn 0.763461 0.547084 -0.343258
vn 0.000000 0.918354 -0.395760
vn -0.004685 0.723758 -0.690038
vn 0.534217 0.419486 -0.733923
vn 0.009835 0.666141 -0.745761
vn -0.618914 0.447162 -0.645749
vn -0.553451 0.432667 -0.711682
vn -0.763461 0.547084 -0.343258
vn -0.606711 -0.687509 -0.399040
vn -0.596146 -0.661756 -0.454631
vn 0.019781 -0.247545 -0.968674
vn 0.040722 -0.334869 -0.941384
vn 0.727046 -0.261721 -0.634749
vn 0.724092 -0.200006 -0.660067
vn 0.019124 -0.141230 -0.989792
vn 0.713589 -0.120238 -0.690170
vn -0.706664 -0.210801 -0.675418
vn -0.693766 -0.271627 -0.667015
vn -0.694917 -0.132069 -0.706858
vn 0.007203 0.263946 0.964511
vn 0.006490 0.056771 0.998366
vn 0.013716 -0.180308 0.983515
vn 0.033688 -0.222646 0.974317
vn 0.012450 0.106501 0.994235
vn 0.006059 0.048418 0.998809
vn 0.006077 0.048586 0.998801
vn 0.000173 0.995037 -0.099504
vn -0.003318 0.836722 -0.547618
vn -0.891162 -0.021860 -0.453159
vn -0.999298 0.032966 0.017815
vn 0.003043 0.932913 0.360088
vn -0.875155 0.095675 0.474289
vn 0.000046 -0.992973 0.118343
vn 0.000027 -0.937377 -0.348316
vn 0.886976 -0.020316 -0.461369
vn 0.999481 0.031110 0.008297
vn -0.000118 -0.826830 0.562453
vn 0.879459 0.090558 0.467281
vn -0.834616 -0.116536 -0.538364
vn -0.783540 -0.082314 -0.615864
vn -0.967040 -0.039211 -0.251586
vn 0.808258 -0.137368 -0.572582
vn 0.749648 -0.082443 -0.656682
vn 0.967040 -0.039211 -0.251586
vn -0.000532 -0.207001 -0.978341
vn 0.000609 0.071000 0.997476
s 1
g bandHat
usemtl tt_t_chr_avt_acc_hat_band
f 1/1/1 2/2/2 3/3/3
f 4/4/4 5/5/5 6/6/6
f 4/4/4 7/7/7 8/8/8 5/5/5
f 9/9/9 3/3/3 2/2/2 10/10/10
s 3
f 13/13/11 11/11/12 12/12/13 14/14/14
f 15/15/15 11/11/12 13/13/11 7/16/16
f 8/17/17 7/16/16 13/13/11 16/18/18
f 17/19/19 16/18/18 13/13/11 14/14/14
s 4
f 7/20/20 8/21/21 18/22/22
f 18/22/22 8/21/21 19/23/23
f 19/23/23 8/21/21 16/24/24 20/25/25
s 5
f 20/25/26 16/26/27 17/27/28 21/28/29
f 14/29/30 22/30/31 17/27/28
f 17/27/28 22/30/31 21/28/29
s 1
f 1/1/1 17/88/32 14/89/33 2/2/2
f 23/90/34 4/4/4 6/6/6 24/91/35
s 6
f 25/31/36 26/32/37 27/33/38
f 28/34/39 27/33/38 26/32/37 84/73/40
s 7
f 31/37/41 29/35/42 30/36/43 32/38/44
f 34/39/45 33/92/46 30/36/43 35/40/47
f 37/41/48 32/38/44 36/93/49 38/42/50
s 9
f 41/95/51 39/94/52 40/43/53 42/96/54
f 45/98/55 43/97/56 44/99/57 39/100/52
f 47/44/58 46/101/59 41/102/51 48/103/60
s 7
f 29/35/42 33/104/46 34/39/45 49/105/61
f 30/36/43 29/35/42 49/106/61 35/40/47
f 33/107/46 29/35/42 31/37/41 36/108/49
f 30/36/43 33/109/46 36/110/49 32/38/44
f 50/111/62 38/42/50 36/112/49 31/37/41
f 37/41/48 50/113/62 31/37/41 32/38/44
s 9
f 51/45/63 43/114/56 45/115/55 40/43/53
f 44/116/57 51/45/63 40/43/53 39/117/52
f 46/119/59 42/118/54 40/43/53 45/120/55
f 41/122/51 46/121/59 45/123/55 39/124/52
f 42/126/54 46/125/59 47/44/58 52/127/64
f 41/129/51 42/128/54 52/130/64 48/131/60
s 12
f 55/48/65 53/46/66 54/47/67 56/49/68
f 57/50/69 55/48/65 56/49/68 58/51/70
f 57/50/69 58/51/70 59/52/71
f 59/52/71 58/51/70 60/132/72
f 63/55/73 61/53/74 62/54/75 64/56/76
f 65/57/77 63/55/73 64/56/76 66/58/78
f 68/134/79 67/133/80 66/58/78 64/56/76
f 69/136/81 68/135/79 64/56/76 62/54/75
f 69/137/81 62/54/75 59/52/71
f 59/52/71 62/54/75 61/53/74
f 70/139/82 60/138/72 58/51/70 56/49/68
f 71/141/83 70/140/82 56/49/68 54/47/67
s 1
f 74/61/84 72/59/85 73/60/86 75/62/87
f 11/63/88 74/61/84 75/62/87 12/64/89
f 77/65/90 76/142/91 72/59/85 74/61/84
f 15/143/92 77/65/90 74/61/84 11/63/88
f 77/65/90 15/144/92 7/7/7 4/4/4
f 76/145/91 77/65/90 4/4/4 23/146/34
f 75/62/87 73/60/86 10/10/10 2/2/2
f 12/64/89 75/62/87 2/2/2 14/147/33
f 5/5/5 8/8/8 16/66/93 78/67/94
f 6/6/6 5/5/5 78/67/94 79/68/95
f 24/148/35 6/6/6 79/68/95 80/69/96
f 78/67/94 16/66/93 17/149/32 1/1/1
f 79/68/95 78/67/94 1/1/1 3/3/3
f 80/69/96 79/68/95 3/3/3 9/9/9
s 6
f 81/70/97 82/71/98 83/72/99
f 83/72/99 82/71/98 28/34/39 84/73/40
s 15
f 87/76/100 85/74/101 86/75/102 88/77/103
f 89/78/104 87/76/100 88/77/103 90/79/105
f 93/81/106 91/80/107 92/150/108 94/151/109
f 95/82/110 93/81/106 94/152/109 96/153/111
s 12
f 98/84/112 97/83/113 67/154/80 68/155/79
f 99/85/114 98/84/112 68/156/79 69/157/81
f 101/159/115 100/158/116 53/46/66 55/48/65
f 102/161/117 101/160/115 55/48/65 57/50/69
f 57/50/69 59/52/71 102/162/117
f 102/163/117 59/52/71 61/53/74
f 101/165/115 102/164/117 61/53/74 63/55/73
f 100/167/116 101/166/115 63/55/73 65/57/77
f 69/168/81 59/52/71 99/85/114
f 99/85/114 59/52/71 60/169/72
f 98/84/112 99/85/114 60/170/72 70/171/82
f 97/83/113 98/84/112 70/172/82 71/173/83
s 15
f 91/80/107 103/86/118 92/174/108
f 92/175/108 103/86/118 85/74/101
f 94/177/109 92/176/108 85/74/101 87/76/100
f 96/179/111 94/178/109 87/76/100 89/78/104
f 96/180/111 89/78/104 104/87/119
f 104/87/119 89/78/104 90/79/105
f 85/74/101 103/86/118 86/75/102
f 86/75/102 103/86/118 91/80/107
f 88/77/103 86/75/102 91/80/107 93/81/106
f 90/79/105 88/77/103 93/81/106 95/82/110
f 90/79/105 95/82/110 104/87/119
f 104/87/119 95/82/110 96/181/111
